<!DOCTYPE svg PUBLIC "-//W3C//DTD SVG 1.1//EN" "http://www.w3.org/Graphics/SVG/1.1/DTD/svg11.dtd">
<!-- Uploaded to: SVG Repo, www.svgrepo.com, Transformed by: SVG Repo Mixer Tools -->
<svg fill="#ff8000" height="800px" width="800px" version="1.1" id="Layer_1" xmlns="http://www.w3.org/2000/svg" xmlns:xlink="http://www.w3.org/1999/xlink" viewBox="0 0 502.322 502.322" xml:space="preserve" stroke="#ff8000">
<g id="SVGRepo_bgCarrier" stroke-width="0"/>
<g id="SVGRepo_tracerCarrier" stroke-linecap="round" stroke-linejoin="round"/>
<g id="SVGRepo_iconCarrier"> <g> <g> <path d="M494.954,114.056C477.888,55.389,429.888,19.122,394.688,6.322c-41.6-14.933-89.6-1.067-134.4,38.4 c-44.8-39.467-93.867-54.4-135.467-38.4c-35.2,12.8-83.2,49.067-100.267,107.733c-11.733,39.467-12.8,103.467,48,182.4 c14.933,19.2,34.133,43.733,53.333,68.267v19.2c-12.8-5.333-26.667-8.533-41.6-8.533c-46.933,0-83.2,27.733-83.2,62.933 c0,36.267,36.267,64,83.2,64c46.933,0,83.2-27.733,84.267-62.933c0-5.333-1.067-9.6-2.133-14.933v-12.8 c2.133,3.2,5.333,6.4,7.467,8.533c65.067,75.733,74.667,81.067,84.267,81.067h1.067c1.067,0,1.067,0,2.133,0 c10.667,0,20.267-5.333,83.2-81.067c34.133-40.533,74.667-90.667,101.333-124.8C507.755,218.589,506.688,153.522,494.954,114.056z M84.288,460.722c-23.467,0-41.6-12.8-41.6-22.4c0-9.6,18.133-21.333,41.6-21.333c12.8,0,24.533,3.2,32,9.6 c3.2,2.133,9.6,6.4,9.6,12.8C125.888,448.989,107.755,460.722,84.288,460.722z M414.954,271.922 c-46.933,59.733-128,155.733-155.733,183.467c-18.133-17.067-55.467-60.8-92.8-106.667V231.389c7.467,8.533,14.933,16,20.267,22.4 c19.2,20.267,26.667,28.8,29.867,82.133c1.067,11.733,10.667,21.333,22.4,20.267c11.733-1.067,21.333-10.667,20.267-22.4 c-3.2-66.133-17.067-83.2-40.533-108.8c-13.867-14.933-30.933-33.067-52.267-74.667c-4.267-8.533-13.867-12.8-23.467-10.667 c-9.6,2.133-16,10.667-16,20.267v139.733c-7.467-9.6-14.933-19.2-22.4-27.733c-39.467-51.2-53.333-101.333-40.533-145.067 c12.8-43.733,48-70.4,74.667-80c29.867-10.667,69.333,4.267,105.6,41.6c2.133,2.133,5.333,3.2,7.467,4.267 c7.467,3.2,17.067,2.133,23.467-4.267c36.267-36.267,75.733-52.267,105.6-41.6c26.667,9.6,61.867,36.267,74.667,80 C468.288,170.589,454.421,220.722,414.954,271.922z"/> </g> </g> </g>
</svg>